<svg width="155" height="40" viewBox="0 0 155 40" fill="#68217A" stroke='#68217A' xmlns="http://www.w3.org/2000/svg">
<path fill-rule="evenodd" clip-rule="evenodd" d="M0 0V40C1.22633 35.9429 3.73922 33.0454 6.5087 31.0019C5.48449 26.2431 1.89972 25.2794 0.00276071 25.1503V22.1804C5.19541 22.7868 7.95824 26.4568 9.09486 29.3563C9.92358 28.9027 10.7474 28.5142 11.5402 28.1832C9.03476 21.4445 3.0583 19.2785 0.001254 19.0713V15.4019C8.80867 16.428 13.3559 22.0623 15.3729 26.9099C16.5225 26.6241 17.3856 26.5 17.7783 26.4828L17.8228 26.481C17.985 26.4739 18.2092 26.4642 18.4844 26.4457C14.9391 15.7526 5.09403 12.4096 0.001254 12.1313V8.06297C13.5658 9.53356 19.9123 18.5019 22.3554 25.7878C26.3486 24.6522 31.3672 21.6064 31.3672 13.2972C31.3672 3.14181 22.308 0.20096 17.7783 0H0Z" fill="#68217A"/>
<path d="M54.188 14.5723C53.1305 13.1938 51.4582 12.4308 49.6629 12.4308C47.8185 12.4308 46.0478 13.2185 44.9903 14.5969V12.8H43.3672V32H45.187V24.4923C46.2199 25.7969 47.7939 26.4615 49.5891 26.4615C51.409 26.4615 53.0813 25.7231 54.188 24.32C55.2946 22.8923 55.6389 21.1446 55.6389 19.4215C55.6389 17.7231 55.2455 15.9262 54.188 14.5723ZM52.737 23.1877C51.9746 24.2462 50.6958 24.7877 49.3924 24.7877C48.089 24.7877 46.8348 24.2708 46.0724 23.2862C45.2854 22.3015 44.9903 20.8492 44.9903 19.4215C44.9903 18.0185 45.2854 16.5908 46.0724 15.5815C46.8348 14.5969 48.0644 14.1046 49.3678 14.1046C50.7204 14.1046 51.95 14.6215 52.7124 15.68C53.4502 16.6646 53.7207 18.0431 53.7207 19.4215C53.7207 20.8246 53.4748 22.2031 52.737 23.1877Z" fill="#68217A"/>
<path d="M64.2064 12.4308C63.0997 12.4554 61.9439 12.8 61.0831 13.5385C60.6159 13.9323 60.247 14.3262 59.9765 14.7938V12.8H58.3534V26.0923H60.1732V19.7662C60.1732 17.8462 60.1978 16.32 61.452 15.1385C62.0914 14.5231 63.026 14.1538 64.0834 14.1292C64.7966 14.1046 65.436 14.2031 66.0017 14.4246V12.6769C65.4115 12.5046 64.8212 12.4308 64.2064 12.4308Z" fill="#68217A"/>
<path d="M73.4102 26.4615C75.3285 26.4615 77.0499 25.7723 78.2058 24.2954C79.3125 22.8677 79.706 21.1938 79.706 19.4215C79.706 17.7231 79.3371 16 78.2058 14.5723C77.0745 13.1446 75.2793 12.4308 73.4102 12.4308C71.492 12.4308 69.6967 13.1938 68.6147 14.5723C67.508 15.9508 67.1145 17.6985 67.1145 19.4215C67.1145 21.1692 67.4834 22.8923 68.6147 24.2954C69.7459 25.7477 71.492 26.4615 73.4102 26.4615ZM77.7877 19.4215C77.7877 20.8 77.5418 22.1785 76.7548 23.1877C75.9925 24.1969 74.7382 24.7385 73.4102 24.7385C72.0822 24.7385 70.8034 24.1969 70.0656 23.1877C69.2787 22.1785 69.0327 20.8 69.0327 19.4215C69.0327 18.0923 69.2787 16.6892 70.0656 15.68C70.8034 14.6708 72.0822 14.1538 73.4102 14.1538C74.7382 14.1538 75.9925 14.6708 76.7548 15.68C77.5418 16.6892 77.7877 18.0923 77.7877 19.4215Z" fill="#68217A"/>
<path d="M93.2212 14.5723C92.1637 13.1938 90.4914 12.4308 88.6961 12.4308C86.95 12.4308 85.3023 13.1446 84.2202 14.3508V8.36923H82.4004V26.0923H84.0235V24.2215C85.0564 25.6985 86.7041 26.4615 88.6223 26.4615C90.4422 26.4615 92.1145 25.7231 93.2212 24.32C94.3278 22.8923 94.6721 21.1446 94.6721 19.4215C94.6721 17.7231 94.2787 15.9262 93.2212 14.5723ZM91.7702 23.1877C91.0078 24.2462 89.729 24.7877 88.4256 24.7877C87.1222 24.7877 85.868 24.2708 85.1056 23.2862C84.3186 22.3015 84.0235 20.8492 84.0235 19.4215C84.0235 18.0185 84.3186 16.5908 85.1056 15.5815C85.868 14.5969 87.0976 14.1046 88.401 14.1046C89.7536 14.1046 90.9832 14.6215 91.7456 15.68C92.4834 16.6646 92.7539 18.0431 92.7539 19.4215C92.7539 20.8246 92.508 22.2031 91.7702 23.1877Z" fill="#68217A"/>
<path d="M98.5916 19.9631H109.043C109.093 17.92 108.773 16 107.617 14.5477C106.461 13.0954 104.838 12.4308 102.944 12.4308C101.026 12.4308 99.3048 13.1446 98.1489 14.5723C97.0423 15.9754 96.6488 17.7477 96.6488 19.4954C96.6488 21.1692 97.0423 22.8923 98.1489 24.2954C99.2556 25.7231 101.1 26.4615 102.994 26.4615C104.174 26.4615 105.379 26.1662 106.387 25.5754C107.396 24.96 108.257 24.0246 108.798 22.8185L107.101 22.1785C106.707 22.9662 106.166 23.5815 105.478 24.0492C104.74 24.5169 103.879 24.7385 102.944 24.7385C101.616 24.7385 100.338 24.1969 99.5753 23.1877C98.9113 22.3015 98.6408 21.1446 98.5916 19.9631ZM102.944 14.08C104.223 14.08 105.502 14.5969 106.24 15.5815C106.855 16.3692 107.076 17.3046 107.15 18.4123H98.6162C98.7146 17.3785 98.9851 16.3938 99.5999 15.6062C100.387 14.5723 101.641 14.08 102.944 14.08Z" fill="#68217A"/>
<path d="M122.324 14.5723C121.291 13.2185 119.668 12.4308 117.897 12.4308C116.028 12.4308 114.257 13.2185 113.2 14.6708C113.027 14.9169 112.88 15.1877 112.732 15.4831V12.8H111.773V32H112.806V23.5323C112.929 23.7538 113.052 23.9754 113.2 24.1723C114.233 25.6492 115.831 26.4615 117.7 26.4615C119.569 26.4615 121.192 25.7231 122.324 24.2954C123.406 22.8677 123.725 21.0954 123.725 19.4215C123.725 17.7723 123.406 15.9754 122.324 14.5723ZM121.463 23.6308C120.602 24.7877 119.176 25.4277 117.7 25.4277C116.2 25.4277 114.749 24.8123 113.888 23.6554C113.027 22.5231 112.732 20.9477 112.732 19.4215C112.732 17.8954 113.027 16.3446 113.888 15.2123C114.749 14.0308 116.2 13.4646 117.7 13.4646C119.176 13.4646 120.602 14.0554 121.463 15.2123C122.348 16.3446 122.619 17.8954 122.619 19.4215C122.619 20.9477 122.348 22.4985 121.463 23.6308Z" fill="#68217A"/>
<path d="M126.437 26.0923V8H127.47V26.0923H126.437Z" fill="#68217A"/>
<path d="M140.525 12.8V20.1108C140.525 20.6769 140.476 21.2185 140.353 21.76C140.181 22.7446 139.738 23.68 139.025 24.32C138.336 24.9846 137.377 25.3292 136.394 25.3785C135.385 25.4277 134.402 25.2062 133.59 24.6892C131.918 23.5569 131.696 21.6615 131.696 19.2738V12.8H130.664V19.2738C130.614 21.7846 131.008 24.1477 133.024 25.5262C134.057 26.2154 135.287 26.4615 136.443 26.3631C137.623 26.3138 138.828 25.8954 139.714 25.0585C140.058 24.7138 140.353 24.3446 140.599 23.9262V26.0923H141.558V12.8H140.525Z" fill="#68217A"/>
<path d="M154.858 16.2708C154.563 15.0646 153.407 13.7108 152.153 13.0708C151.292 12.6277 150.308 12.4308 149.374 12.4308C148.439 12.4062 147.48 12.5292 146.57 12.9477C145.439 13.4646 144.529 14.5969 144.529 15.8031C144.529 16.64 144.824 17.5262 145.587 18.1415C146.398 18.8062 147.308 19.0277 148.169 19.2738C149.202 19.5692 149.989 19.7908 150.604 19.9877C152.325 20.48 153.727 21.12 153.727 22.6708C153.727 23.4831 153.333 24.2215 152.669 24.6646C151.907 25.1815 150.628 25.4031 149.497 25.4031C148.341 25.4031 147.234 25.0338 146.472 24.3692C145.857 23.8277 145.537 23.3354 145.242 22.6708L144.259 23.1138C144.554 23.8031 145.119 24.64 145.734 25.1323C146.964 26.1169 148.193 26.4369 149.546 26.4369C150.85 26.4369 152.251 26.2154 153.26 25.5508C154.219 24.96 154.834 23.7538 154.834 22.7446C154.834 20.7508 153.087 19.5446 151.022 19.0031C149.718 18.6585 148.808 18.4123 148.169 18.2154C146.546 17.7723 145.636 17.1815 145.636 15.8031C145.636 14.2769 147.431 13.4154 149.349 13.4646C151.391 13.4646 153.038 14.4738 153.801 16.5169L154.858 16.2708Z" fill="#68217A"/>
</svg>
